<?xml version="1.0" encoding="utf-8"?>
<svg version="1.1" xmlns:xlink="http://www.w3.org/1999/xlink" width="40px" height="40px" xmlns="http://www.w3.org/2000/svg">
  <g transform="matrix(1 0 0 1 -60 -56 )">
    <path d="M 37.858337981037366 0.24526198439241753  C 38.37888083286857 -0.06688963210702781  38.8845510317903 -0.052025269416580144  39.37534857780256 0.2898550724637694  C 39.86614612381484 0.6465997770345577  40.06692693809259 1.1222593831289451  39.9776910206358 1.716833890746936  L 34.26659230340212 35.96432552954292  C 34.192229038854805 36.395392047565956  33.9542665923034 36.72984020810107  33.552704963747914 36.96767001114827  C 33.344487823015434 37.08658491267187  33.11396170291876 37.146042363433665  32.86112660345789 37.146042363433665  C 32.6975274214538 37.146042363433665  32.51905558654025 37.10888145670754  32.325711098717235 37.03455964325529  L 20.56887897378695 32.240802675585286  L 13.92080312325711 39.531772575250834  C 13.653095370886781 39.843924191750276  13.303588027514408 40  12.872281093139987 40  C 12.664063952407512 40  12.493028443948688 39.9702712746191  12.359174567763525 39.9108138238573  C 12.076594162483733 39.806763285024154  11.853504368841794 39.63210702341137  11.689905186837702 39.38684503901895  C 11.526306004833613 39.14158305462654  11.444506413831569 38.87030843552583  12 38.57302118171683  L 12 28.49498327759197  L 0.9146681539319577 24.1917502787068  C 0.36437999628183676 23.983649201040503  0.06692693809258227 23.574879227053138  0.02230897936419409 22.965440356744704  C -0.02230897936419409 22.385730211817165  0.2156534671872095 21.9472315124489  0.736196319018405 21.649944258639913  L 37.858337981037366 0.24526198439241753  Z M 20.769659788064697 29.230769230769234  L 31.745677635248185 33.7123745819398  L 36.67596207473508 4.2140468227424766  L 4.684885666480759 22.65328874024526  L 12.180702732849973 25.707915273132667  L 31.43335192414947 11.460423634336676  L 20.769659788064697 29.230769230769234  Z " fill-rule="nonzero" fill="#000000" stroke="none" transform="matrix(1 0 0 1 60 56 )" />
  </g>
</svg>